<?xml version="1.0" encoding="UTF-8"?>
<svg id="Layer_1" data-name="Layer 1" xmlns="http://www.w3.org/2000/svg" version="1.1" viewBox="0 0 200 200">
  <defs>
    <style>
      .cls-1 {
        fill: #fff;
        stroke-width: 0px;
      }
    </style>
  </defs>
  <path class="cls-1" d="M100.08,190.85c18.91,0,35.43-5.12,48.7-14.39l-23.51-25.38c-6.87,4.65-15.08,7.08-24.21,7.08-28.24,0-48.14-20.54-48.14-58,0-8.88,1.1-16.83,3.14-23.8l-27.49-29.67c-8.43,14.36-12.97,32.39-12.97,53.47,0,54.47,34.35,90.69,84.48,90.69"/>
  <path class="cls-1" d="M102.03,8.51c-20.04,0-37.23,4.9-50.88,14.05l24.09,26.01c7.09-4.73,15.53-7.19,24.84-7.19,28.48,0,46.98,20.08,46.98,58.53,0,8.54-1.01,16.24-2.91,23.04l26.96,29.11c8.47-14.45,13.13-32.4,13.13-52.89,0-54.46-32.31-90.66-82.21-90.66"/>
</svg>