<?xml version="1.0" encoding="utf-8"?>
<!-- Generator: Adobe Illustrator 26.2.1, SVG Export Plug-In . SVG Version: 6.00 Build 0)  -->
<svg version="1.1" id="Layer_1" xmlns="http://www.w3.org/2000/svg" xmlns:xlink="http://www.w3.org/1999/xlink" x="0px" y="0px"
	 viewBox="0 0 200 200" style="enable-background:new 0 0 200 200;" xml:space="preserve">
<path d="M150,174.9c0-38.42-9.16-72.18-22.99-91.52c-5.84-8.17-5.46-19.26,0.56-27.29c4.68-6.24,7.33-14.11,6.98-22.62
	c-0.75-18.07-15.33-32.76-33.2-33.45C81.64-0.74,65.41,15.21,65.41,34.98c0,8.07,2.7,15.5,7.24,21.42
	c6.07,7.92,6.14,18.86,0.33,26.98C59.16,102.73,50,136.49,50,174.9l0,0c0,13.86,22.39,25.1,50,25.1S150,188.76,150,174.9L150,174.9z
	"/>
</svg>
