<?xml version="1.0" encoding="utf-8"?>
<!-- Generator: Adobe Illustrator 16.0.4, SVG Export Plug-In . SVG Version: 6.00 Build 0)  -->
<!DOCTYPE svg PUBLIC "-//W3C//DTD SVG 1.0//EN" "http://www.w3.org/TR/2001/REC-SVG-20010904/DTD/svg10.dtd">
<svg version="1.0" id="Layer_1" xmlns="http://www.w3.org/2000/svg" xmlns:xlink="http://www.w3.org/1999/xlink" x="0px" y="0px"
	 width="623.622px" height="396.851px" viewBox="0 0 623.622 396.851" enable-background="new 0 0 623.622 396.851"
	 xml:space="preserve">
<g>
	<polygon fill="#FFFFFF" points="63.305,71.788 134.173,71.795 205.038,238.851 275.906,71.784 346.77,71.784 240.472,322.38 
		169.607,322.38 	"/>
	<path fill="#1E1E1C" d="M270.604,133.146l2.997-7.065l10.34,4.387l-6.614-13.159l3.555-8.37l6.861,14.295l18.754-3.809
		l-3.598,8.483l-12.187,2.387l1.783,3.807l6.587,2.796l-2.996,7.064L270.604,133.146z"/>
	<path fill="#1E1E1C" d="M223.018,245.249l3-7.061l19.291,8.188l5.236-12.338l6.188,2.624l-8.236,19.401L223.018,245.249z"/>
	<path fill="#1E1E1C" d="M232.395,223.157l8.701-20.496l6.005,2.551l-5.732,13.504l3.863,1.637l5.186-12.228l5.569,2.362
		l-5.188,12.231l4.04,1.716l5.809-13.688l6.004,2.551l-8.776,20.676L232.395,223.157z"/>
	<path fill="#1E1E1C" d="M242.991,198.201l5.111-12.046c1.656-3.896,3.818-6.158,6.291-7.128c2.087-0.873,4.378-0.804,6.89,0.263
		l0.073,0.031c3.898,1.654,5.599,4.826,5.604,8.564l11.458-2.311l-3.458,8.152l-9.896,1.858l-0.03,0.073l-1.281,3.021l7.714,3.276
		l-3,7.062L242.991,198.201z M260.195,191.674c1.017-2.404,0.441-4.28-1.415-5.07l-0.07-0.03c-2.003-0.85-3.641,0.174-4.645,2.539
		l-1.963,4.625l6.115,2.596L260.195,191.674z"/>
	<path fill="#1E1E1C" d="M254.292,171.569l3.014-7.094l25.482,10.813l-3.016,7.099L254.292,171.569z"/>
	<path fill="#1E1E1C" d="M271.77,166.023l-0.074-0.03c-7.423-3.151-10.823-11.34-7.546-19.055c2.21-5.206,5.812-7.629,9.9-8.559
		l1.86,7.061c-2.439,0.684-4.315,1.865-5.353,4.305c-1.511,3.568,0.442,7.361,4.156,8.938l0.07,0.03
		c3.822,1.623,7.876,0.377,9.392-3.189c1.125-2.659,0.55-4.748-0.655-7.066l6.041-3.705c2.295,3.809,3.356,8.082,0.963,13.725
		C287.435,165.757,279.377,169.251,271.77,166.023z"/>
	<polygon fill="#1E1E1C" points="221.935,247.407 218.577,255.319 230.539,267.675 213.342,267.657 209.982,275.571 
		240.039,275.589 241.429,272.302 242.831,269.015 	"/>
	<rect x="2.124" y="16.426" fill="none" width="618.536" height="361.302"/>
</g>
<g>
	<path fill="#FFFFFF" d="M346.792,160.906h14.228c3.488,0,5.946,0.872,7.569,2.5c1.111,1.108,1.785,2.573,1.785,4.476v0.08
		c0,3.209-1.823,5.113-4.28,6.182c3.368,1.111,5.508,3.015,5.508,6.777v0.08c0,4.758-3.884,7.65-10.504,7.65h-14.306V160.906z
		 M359.116,171.966c2.34,0,3.646-0.795,3.646-2.416v-0.082c0-1.506-1.188-2.377-3.484-2.377h-4.995v4.875H359.116z M360.226,182.468
		c2.338,0,3.688-0.912,3.688-2.535v-0.08c0-1.506-1.188-2.498-3.766-2.498h-5.865v5.113H360.226z"/>
	<path fill="#FFFFFF" d="M376.357,176.483v-15.577h7.809v15.419c0,4.004,2.022,5.907,5.115,5.907c3.091,0,5.113-1.823,5.113-5.71
		v-15.616h7.807v15.378c0,8.96-5.112,12.883-12.999,12.883C381.312,189.167,376.357,185.166,376.357,176.483z"/>
	<path fill="#FFFFFF" d="M406.245,184.528l4.28-5.111c2.735,2.18,5.786,3.328,8.999,3.328c2.06,0,3.17-0.714,3.17-1.902v-0.078
		c0-1.149-0.912-1.783-4.678-2.656c-5.904-1.347-10.463-3.012-10.463-8.721v-0.08c0-5.15,4.081-8.875,10.741-8.875
		c4.718,0,8.401,1.266,11.415,3.688l-3.844,5.43c-2.536-1.783-5.312-2.738-7.769-2.738c-1.864,0-2.775,0.794-2.775,1.783v0.08
		c0,1.271,0.952,1.823,4.795,2.697c6.382,1.387,10.345,3.447,10.345,8.64v0.08c0,5.667-4.479,9.037-11.217,9.037
		C414.331,189.129,409.653,187.582,406.245,184.528z"/>
	<path fill="#FFFFFF" d="M435.935,171.051v-10.145h7.728v27.745h-7.728V171.051z"/>
	<path fill="#FFFFFF" d="M450.317,160.906h7.178l11.412,14.665v-14.665h7.609v27.745h-6.738l-11.851-15.221v15.221h-7.61V160.906z"
		/>
	<path fill="#FFFFFF" d="M483.017,160.906h22.314v6.54h-14.705v4.203h13.319v6.062h-13.319v4.399h14.903v6.54h-22.513V160.906z"/>
	<path fill="#FFFFFF" d="M508.942,184.528l4.28-5.111c2.733,2.18,5.785,3.328,8.997,3.328c2.059,0,3.171-0.714,3.171-1.902v-0.078
		c0-1.149-0.912-1.783-4.678-2.656c-5.905-1.347-10.463-3.012-10.463-8.721v-0.08c0-5.15,4.081-8.875,10.742-8.875
		c4.716,0,8.401,1.266,11.415,3.688l-3.847,5.43c-2.535-1.783-5.312-2.738-7.768-2.738c-1.862,0-2.774,0.794-2.774,1.783v0.08
		c0,1.271,0.95,1.823,4.794,2.697c6.382,1.387,10.345,3.447,10.345,8.64v0.08c0,5.667-4.478,9.037-11.216,9.037
		C517.025,189.129,512.349,187.582,508.942,184.528z"/>
	<path fill="#FFFFFF" d="M535.972,184.528l4.28-5.111c2.735,2.18,5.786,3.328,8.999,3.328c2.059,0,3.169-0.714,3.169-1.902v-0.078
		c0-1.149-0.911-1.783-4.677-2.656c-5.904-1.347-10.462-3.012-10.462-8.721v-0.08c0-5.15,4.081-8.875,10.74-8.875
		c4.715,0,8.401,1.266,11.415,3.688l-3.845,5.43c-2.536-1.783-5.311-2.738-7.767-2.738c-1.864,0-2.776,0.794-2.776,1.783v0.08
		c0,1.271,0.952,1.823,4.795,2.697c6.38,1.387,10.344,3.447,10.344,8.64v0.08c0,5.667-4.478,9.037-11.214,9.037
		C544.057,189.129,539.379,187.582,535.972,184.528z"/>
	<g>
		<path fill="#FFFFFF" d="M344.951,219.453l4.28-5.11c2.734,2.18,5.786,3.327,8.996,3.327c2.06,0,3.17-0.714,3.17-1.9v-0.08
			c0-1.148-0.911-1.782-4.676-2.655c-5.903-1.348-10.462-3.012-10.462-8.721v-0.081c0-5.15,4.082-8.874,10.743-8.874
			c4.714,0,8.398,1.265,11.412,3.688l-3.845,5.428c-2.537-1.782-5.311-2.736-7.767-2.736c-1.864,0-2.776,0.793-2.776,1.781v0.082
			c0,1.271,0.952,1.822,4.795,2.696c6.382,1.387,10.344,3.447,10.344,8.641v0.08c0,5.666-4.478,9.036-11.215,9.036
			C353.036,224.054,348.359,222.508,344.951,219.453z"/>
		<path fill="#FFFFFF" d="M373.529,209.784v-0.082c0-8.084,6.22-14.426,14.625-14.426c5.668,0,9.314,2.379,11.771,5.787l-5.787,4.48
			c-1.584-1.984-3.407-3.25-6.064-3.25c-3.885,0-6.617,3.289-6.617,7.331v0.077c0,4.166,2.732,7.414,6.617,7.414
			c2.894,0,4.599-1.347,6.264-3.369l5.786,4.124c-2.617,3.607-6.143,6.262-12.286,6.262
			C379.907,224.133,373.529,218.065,373.529,209.784z"/>
		<path fill="#FFFFFF" d="M404.997,195.832h7.692v10.385h9.871v-10.385h7.686v27.744h-7.686v-10.542h-9.871v10.542h-7.692V195.832z"
			/>
		<path fill="#FFFFFF" d="M435.798,209.784v-0.082c0-7.965,6.419-14.426,14.98-14.426c8.56,0,14.902,6.383,14.902,14.349v0.077
			c0,7.968-6.423,14.431-14.982,14.431C442.138,224.133,435.798,217.75,435.798,209.784z M457.833,209.784v-0.082
			c0-4.002-2.894-7.488-7.134-7.488c-4.2,0-7.016,3.409-7.016,7.411v0.077c0,4.004,2.895,7.492,7.096,7.492
			C455.019,217.194,457.833,213.786,457.833,209.784z"/>
		<path fill="#FFFFFF" d="M470.318,209.784v-0.082c0-7.965,6.419-14.426,14.98-14.426c8.561,0,14.904,6.383,14.904,14.349v0.077
			c0,7.968-6.423,14.431-14.985,14.431C476.66,224.133,470.318,217.75,470.318,209.784z M492.353,209.784v-0.082
			c0-4.002-2.894-7.488-7.136-7.488c-4.198,0-7.013,3.409-7.013,7.411v0.077c0,4.004,2.892,7.492,7.094,7.492
			C489.541,217.194,492.353,213.786,492.353,209.784z"/>
		<path fill="#FFFFFF" d="M505.79,195.832h7.69v21.007h13.438v6.737H505.79V195.832z"/>
	</g>
</g>
</svg>
